<svg width="50" height="50" viewBox="0 0 32 33" fill="none" xmlns="http://www.w3.org/2000/svg">
<!-- <circle cx="25" cy="25" r="25" fill="#EFEFEF"/> -->
<path d="M24.3305 13.5325H7.08986V10.3294H24.3305V13.5325ZM24.3305 19.9386H7.08986V16.7355H24.3305V19.9386ZM19.1583 26.3447H7.08986V23.1417H19.1583V26.3447ZM15.7102 3.92328C16.1674 3.92328 16.606 4.09201 16.9293 4.39236C17.2526 4.6927 17.4342 5.10006 17.4342 5.52481C17.4342 5.94957 17.2526 6.35692 16.9293 6.65727C16.606 6.95761 16.1674 7.12635 15.7102 7.12635C15.2529 7.12635 14.8144 6.95761 14.4911 6.65727C14.1678 6.35692 13.9861 5.94957 13.9861 5.52481C13.9861 5.10006 14.1678 4.6927 14.4911 4.39236C14.8144 4.09201 15.2529 3.92328 15.7102 3.92328ZM27.7786 3.92328H20.572C19.8479 2.0655 17.9515 0.720215 15.7102 0.720215C13.4689 0.720215 11.5724 2.0655 10.8483 3.92328H3.64173C2.72723 3.92328 1.85019 4.26074 1.20354 4.86144C0.556887 5.46213 0.193604 6.27684 0.193604 7.12635V29.5478C0.193604 30.3973 0.556887 31.212 1.20354 31.8127C1.85019 32.4134 2.72723 32.7509 3.64173 32.7509H27.7786C28.6931 32.7509 29.5702 32.4134 30.2168 31.8127C30.8635 31.212 31.2268 30.3973 31.2268 29.5478V7.12635C31.2268 6.27684 30.8635 5.46213 30.2168 4.86144C29.5702 4.26074 28.6931 3.92328 27.7786 3.92328Z" fill="#1F5798"/>
</svg>