<svg width="40" height="40" viewBox="0 0 32 34" fill="none" xmlns="http://www.w3.org/2000/svg">
<!-- <circle cx="25" cy="25" r="25" fill="#EFEFEF"/> -->
<path d="M27.7786 30.3448H3.64173V11.8008H27.7786V30.3448ZM22.6064 0V3.37165H8.81392V0H5.3658V3.37165H3.64173C1.72802 3.37165 0.193604 4.87203 0.193604 6.7433V30.3448C0.193604 31.239 0.556887 32.0966 1.20354 32.7289C1.85019 33.3612 2.72723 33.7165 3.64173 33.7165H27.7786C28.6931 33.7165 29.5702 33.3612 30.2168 32.7289C30.8635 32.0966 31.2268 31.239 31.2268 30.3448V6.7433C31.2268 4.87203 29.6751 3.37165 27.7786 3.37165H26.0546V0" fill="#1F5798"/>
</svg>
