<svg width="30" height="30" viewBox="0 0 40 37" fill="none" xmlns="http://www.w3.org/2000/svg">
<path d="M4.59009 29.4488V8.3058C4.59009 4.98182 7.33501 3.77515 9.18025 3.77515H32.1311V6.79559H9.19861C8.49173 6.81371 7.6502 7.08857 7.6502 8.3058C7.6502 9.52304 8.49173 9.7979 9.19861 9.81602H32.1311V30.9591C32.1311 32.6248 30.7586 33.9795 29.071 33.9795H9.18025C7.33501 33.9795 4.59009 32.7728 4.59009 29.4488Z" fill="#686B6F"/>
<path d="M22.9509 17.6987V19.03H37.3257L33.4952 22.6911L34.4842 23.6363L40.0001 18.3643L34.4842 13.0923L33.4952 14.0375L37.3257 17.6987H22.9509Z" fill="#CCC9C9"/>
<path d="M38.0328 25.6069V26.9382H24.2493L27.9874 30.5993L27.0223 31.5445L21.6394 26.2725L27.0223 21.0005L27.9874 21.9457L24.2493 25.6069H38.0328Z" fill="#CCC9C9"/>
</svg>
